<?xml version="1.0" encoding="utf-8"?>
<!-- Generator: Adobe Illustrator 19.2.0, SVG Export Plug-In . SVG Version: 6.00 Build 0)  -->
<!DOCTYPE svg PUBLIC "-//W3C//DTD SVG 1.1//EN" "http://www.w3.org/Graphics/SVG/1.1/DTD/svg11.dtd">
<svg version="1.1" id="Ebene_1" xmlns="http://www.w3.org/2000/svg" xmlns:xlink="http://www.w3.org/1999/xlink" x="0px" y="0px"
	 viewBox="0 0 32 38" style="enable-background:new 0 0 32 38;" xml:space="preserve">
<style type="text/css">
	.st0{fill:#1C212E;}
</style>
<g>
	<path class="st0" d="M0,32.4L4.9,25c1.4,1.9,5.3,4.4,11.3,4.4c4.6,0,6.6-0.8,6.6-3.4c0-2.3-3.1-2.5-10.3-3.8
		C6,20.8,1.4,19,1.4,11.8C1.4,5.1,6.7,0,17.2,0c5.5,0,10.5,1.5,14,4.5l-4.4,6.8c-2.2-1.8-6.1-2.9-9.8-2.9c-4.8,0-6.3,0.9-6.3,2.9
		c0,2.2,1.6,2.2,8.4,3.5C26.1,16.1,32,17.4,32,25.5c0,8.5-6.8,12.1-15.3,12.1C9.4,37.6,3.7,35.3,0,32.4z"/>
</g>
</svg>
