<svg id="Ebene_1" data-name="Ebene 1" xmlns="http://www.w3.org/2000/svg" viewBox="0 0 400 41.07"><defs><style>.cls-1{fill:#fff;}</style></defs><title>serenidad</title><path class="cls-1" d="M0,34.88l1.94-2.65c3.3,3.36,9,5.89,16.56,5.89,7.13,0,13.61-2.59,13.61-9.25,0-6.25-5.89-6.72-14-7.9-8.78-1.3-16.2-2.24-16.2-9.55C1.89,4.89,7.19,0,18.09,0A27.74,27.74,0,0,1,33.23,4.12L31.52,6.66c-3.54-2.71-9-3.71-13.85-3.71C8.9,2.95,4.89,6.42,4.89,11.43c0,5.36,7,5.66,15.85,7C27.58,19.56,35,20.68,35,28.58c0,8.48-7.6,12.49-16.5,12.49C10.19,41.07,3.65,38.18,0,34.88Z"/><path class="cls-1" d="M51,3.54v15.2H75.3v2.95H51V37.53H79.9v2.89h-32V0.65H80V3.54H51Z"/><path class="cls-1" d="M112.65,24.28H96.51V40.42H93.45V0.65h20.21C123.14,0.65,128,5,128,12v0.59c0,6.54-4.13,11-11.84,11.61l13.08,16.2h-3.65ZM96.51,21.45h18c7.13,0,10.37-3.3,10.37-8.84V12.2c0-6-4.07-8.6-10.61-8.6H96.51V21.45Z"/><path class="cls-1" d="M144.76,3.54v15.2H169v2.95H144.76V37.53h28.87v2.89h-32V0.65h32.05V3.54H144.76Z"/><path class="cls-1" d="M224.84,0.65V40.42h-3.71L190,4.12v36.3H187V0.65h3.65l31.23,36.18V0.65h2.95Z"/><path class="cls-1" d="M240.62,0.65h3.12V40.42h-3.12V0.65Z"/><path class="cls-1" d="M299,20v1.06c0,12.14-8.07,19.33-21.33,19.33H259.71V0.65H277C290.59,0.65,299,7.48,299,20ZM262.78,3.59V37.47h14.61c11.73,0,18.44-5.6,18.44-16.38v-1c0-11.37-7.13-16.5-18.91-16.5H262.78Z"/><path class="cls-1" d="M340.55,28.75H314.86l-6.19,11.67h-3.24L326.59,0.65h3.48l19.33,39.77h-3.18ZM339.25,26l-11-22.57L316.33,26h22.92Z"/><path class="cls-1" d="M400,20v1.06c0,12.14-8.07,19.33-21.33,19.33H360.76V0.65H378C391.63,0.65,400,7.48,400,20ZM363.82,3.59V37.47h14.61c11.73,0,18.44-5.6,18.44-16.38v-1c0-11.37-7.13-16.5-18.91-16.5H363.82Z"/></svg>