<?xml version="1.0" encoding="utf-8"?>
<!-- Generator: Adobe Illustrator 19.2.0, SVG Export Plug-In . SVG Version: 6.00 Build 0)  -->
<!DOCTYPE svg PUBLIC "-//W3C//DTD SVG 1.1//EN" "http://www.w3.org/Graphics/SVG/1.1/DTD/svg11.dtd">
<svg version="1.1" id="Ebene_1" xmlns="http://www.w3.org/2000/svg" xmlns:xlink="http://www.w3.org/1999/xlink" x="0px" y="0px"
	 viewBox="0 0 400 42" style="enable-background:new 0 0 400 42;" xml:space="preserve">
<style type="text/css">
	.st0{fill:#1C212E;}
</style>
<path class="st0" d="M0,34.9l1.9-2.7c3.3,3.4,9,5.9,16.6,5.9c7.1,0,13.6-2.6,13.6-9.3c0-6.2-5.9-6.7-14-7.9
	c-8.8-1.3-16.2-2.2-16.2-9.5C1.9,4.9,7.2,0,18.1,0c5.7,0,11,1.4,15.1,4.1l-1.7,2.5c-3.5-2.7-9-3.7-13.8-3.7
	c-8.8,0-12.8,3.5-12.8,8.5c0,5.4,7,5.7,15.9,7C27.6,19.6,35,20.7,35,28.6c0,8.5-7.6,12.5-16.5,12.5C10.2,41.1,3.7,38.2,0,34.9z"/>
<path class="st0" d="M51,3.5v15.2h24.3v2.9H51v15.9h28.9v2.9h-32V0.6H80v2.9H51z"/>
<path class="st0" d="M112.7,24.3H96.5v16.1h-3.1V0.6h20.2C123.1,0.6,128,5,128,12v0.6c0,6.5-4.1,11-11.8,11.6l13.1,16.2h-3.7
	L112.7,24.3z M96.5,21.4h18c7.1,0,10.4-3.3,10.4-8.8v-0.4c0-6-4.1-8.6-10.6-8.6H96.5V21.4z"/>
<path class="st0" d="M144.8,3.5v15.2H169v2.9h-24.3v15.9h28.9v2.9h-32V0.6h32.1v2.9H144.8z"/>
<path class="st0" d="M224.8,0.6v39.8h-3.7L190,4.1v36.3H187V0.6h3.7l31.2,36.2V0.6H224.8z"/>
<path class="st0" d="M240.6,0.6h3.1v39.8h-3.1V0.6z"/>
<path class="st0" d="M299,20v1.1c0,12.1-8.1,19.3-21.3,19.3h-17.9V0.6H277C290.6,0.6,299,7.5,299,20z M262.8,3.6v33.9h14.6
	c11.7,0,18.4-5.6,18.4-16.4v-1c0-11.4-7.1-16.5-18.9-16.5H262.8z"/>
<path class="st0" d="M340.6,28.8h-25.7l-6.2,11.7h-3.2l21.2-39.8h3.5l19.3,39.8h-3.2L340.6,28.8z M339.3,26l-11-22.6l-12,22.6H339.3
	z"/>
<path class="st0" d="M400,20v1.1c0,12.1-8.1,19.3-21.3,19.3h-17.9V0.6H378C391.6,0.6,400,7.5,400,20z M363.8,3.6v33.9h14.6
	c11.7,0,18.4-5.6,18.4-16.4v-1c0-11.4-7.1-16.5-18.9-16.5H363.8z"/>
</svg>
